<svg width="12" height="12" viewBox="0 0 12 12" xmlns="http://www.w3.org/2000/svg">
	<path d="M10.8486 0.282073C10.956 0.126472 11.1109 0.0268521 11.2799 0.00468553C11.449 -0.017481 11.6186 0.0395813 11.7524 0.163572C11.8861 0.287563 11.9731 0.468553 11.9947 0.66753C12.0164 0.866507 11.9708 1.06754 11.8679 1.22729L4.9797 11.5619C4.89052 11.6957 4.77722 11.8044 4.64802 11.8801C4.51882 11.9559 4.37695 11.9967 4.23269 11.9998C4.08844 12.0029 3.94541 11.9681 3.81397 11.8979C3.68253 11.8277 3.56598 11.7239 3.47276 11.5941L0.163186 6.98116C0.105881 6.90492 0.0620724 6.81594 0.0343337 6.71944C0.00659491 6.62295 -0.00451489 6.52089 0.00165679 6.41927C0.00782847 6.31764 0.0311571 6.21849 0.0702727 6.12765C0.109388 6.0368 0.163502 5.95609 0.229435 5.89025C0.295369 5.82442 0.371792 5.77478 0.454217 5.74427C0.536643 5.71375 0.623408 5.70297 0.709416 5.71255C0.795424 5.72214 0.878941 5.75189 0.955062 5.80007C1.03118 5.84825 1.09837 5.91389 1.15269 5.99312L4.20548 10.2481L10.8486 0.282073Z" fill="black"/>
</svg>
